<svg width="71" height="71" viewBox="0 0 71 71" fill="none" xmlns="http://www.w3.org/2000/svg">
<path fill-rule="evenodd" clip-rule="evenodd" d="M35.5 70.7918C16.0089 70.7918 0.208313 54.9912 0.208313 35.5002C0.208313 16.0091 16.0089 0.208496 35.5 0.208496C54.991 0.208496 70.7916 16.0091 70.7916 35.5002C70.7916 54.9912 54.991 70.7918 35.5 70.7918ZM35.5 64.3752C51.4472 64.3752 64.375 51.4474 64.375 35.5002C64.375 19.5529 51.4472 6.62516 35.5 6.62516C19.5528 6.62516 6.62498 19.5529 6.62498 35.5002C6.62498 51.4474 19.5528 64.3752 35.5 64.3752ZM36.4397 50.6023L40.9769 46.065L30.4122 35.5003L40.9769 24.9356L36.4397 20.3984L21.3377 35.5003L36.4397 50.6023Z" fill="black"/>
</svg>

