<svg width="29" height="28" viewBox="0 0 33 32" fill="none" xmlns="http://www.w3.org/2000/svg">
<path fill-rule="evenodd" clip-rule="evenodd" d="M6.875 18.6668C5.35622 18.6668 4.125 17.4729 4.125 16.0002C4.125 14.5274 5.35622 13.3335 6.875 13.3335C8.39378 13.3335 9.625 14.5274 9.625 16.0002C9.625 17.4729 8.39378 18.6668 6.875 18.6668ZM16.5 18.6668C14.9812 18.6668 13.75 17.4729 13.75 16.0002C13.75 14.5274 14.9812 13.3335 16.5 13.3335C18.0188 13.3335 19.25 14.5274 19.25 16.0002C19.25 17.4729 18.0188 18.6668 16.5 18.6668ZM23.375 16.0002C23.375 17.4729 24.6062 18.6668 26.125 18.6668C27.6438 18.6668 28.875 17.4729 28.875 16.0002C28.875 14.5274 27.6438 13.3335 26.125 13.3335C24.6062 13.3335 23.375 14.5274 23.375 16.0002Z" fill="black"/>
</svg>
