<svg width="71" height="71" viewBox="0 0 71 71" fill="none" xmlns="http://www.w3.org/2000/svg">
<path fill-rule="evenodd" clip-rule="evenodd" d="M35.5 70.7918C16.0089 70.7918 0.208328 54.9912 0.208328 35.5002C0.208328 16.0091 16.0089 0.208496 35.5 0.208496C54.991 0.208496 70.7917 16.0091 70.7917 35.5002C70.7917 54.9912 54.991 70.7918 35.5 70.7918ZM35.5 64.3751C51.4472 64.3751 64.375 51.4474 64.375 35.5001C64.375 19.5529 51.4472 6.62515 35.5 6.62515C19.5528 6.62515 6.62499 19.5529 6.62499 35.5001C6.62499 51.4474 19.5528 64.3751 35.5 64.3751ZM31.352 20.3984L26.8147 24.9356L37.3794 35.5003L26.8147 46.065L31.352 50.6023L46.454 35.5003L31.352 20.3984Z" fill="black"/>
</svg>
